# xmcd CD database file
#
# Track frame offsets:
#	150
#	13152
#	28091
#	41772
#	54938
#	65992
#	80049
#	93148
#	105764
#	119992
#	133495
#	147446
#	172002
#	186821
#	201405
#	216531
#	231767
#	246246
#	260049
#	274906
#	287440
#	300777
#
# Disc length: 4168 seconds
#
# Revision: 1
# Processed by: cddbd v1.5.2PL0 Copyright (c) Steve Scherf et al.
# Submitted via: CDex 1.51
#
DISCID=59104616
DTITLE=Louis Jordan - The Irresistible Mr. Jordan and His Tympany Five with Louis Armstrong and Ella Fitzgerald  [Vol.2]
DYEAR=1900
DGENRE=Jazz
TTITLE0=Buzz Me
TTITLE1=Somebody Change The Lock On My Door
TTITLE2=Salt Pork West Virginia
TTITLE3=Ain't That Just Like A Woman
TTITLE4=That Chick Is Too Young To Fry
TTITLE5=Ain't Nobody Here But Us Chicken
TTITLE6=Let The Good Times Rool
TTITLE7=Reet Petite And Gone
TTITLE8=I Know What You're Putting Down
TTITLE9=Look Out
TTITLE10=Inflation Blues
TTITLE11=Saturday Night Fish Fry
TTITLE12=Ain't Nobody's Business But My Own
TTITLE13=Tambouritza Boogie
TTITLE14=Lemonade
TTITLE15=Life Is So Peculiar
TTITLE16=(I'll Be Glad When You're Dead) You Rascal You
TTITLE17=If You're SoSmart How Come You Ain't Rich
TTITLE18=Please Don't Leave Me
TTITLE19=Three Handed Woman
TTITLE20=Come And Get It
TTITLE21=Slow Down
EXTD=
EXTT0=
EXTT1=
EXTT2=
EXTT3=
EXTT4=
EXTT5=
EXTT6=
EXTT7=
EXTT8=
EXTT9=
EXTT10=
EXTT11=
EXTT12=
EXTT13=
EXTT14=
EXTT15=
EXTT16=
EXTT17=
EXTT18=
EXTT19=
EXTT20=
EXTT21=
PLAYORDER=
